<svg width="16" height="16" viewBox="0 0 16 16" fill="none" xmlns="http://www.w3.org/2000/svg">
<path d="M14.6226 8.88C14.6173 8.85134 14.6133 8.82334 14.6073 8.79534C14.5766 8.64667 14.5346 8.50134 14.4793 8.36134C14.4759 8.35267 14.4713 8.34467 14.4679 8.336C14.3446 8.03267 14.1666 7.754 13.9413 7.51334C13.9799 7.344 13.9999 7.17267 13.9999 7C13.9999 6.84134 13.9839 6.68467 13.9526 6.53334C13.9373 6.45667 13.9073 6.386 13.8839 6.312C13.8613 6.24 13.8459 6.16534 13.8166 6.096C13.6966 5.812 13.5219 5.55734 13.3059 5.344C13.3239 5.22867 13.3333 5.114 13.3333 5C13.3333 4.02267 12.7266 3.16667 11.8406 2.82534C11.4999 1.94 10.6439 1.33334 9.66659 1.33334C9.01325 1.33334 8.42392 1.60467 7.99992 2.03867C7.57592 1.60467 6.98659 1.33334 6.33325 1.33334C5.35592 1.33334 4.49992 1.94 4.15925 2.82534C3.27325 3.16667 2.66659 4.02267 2.66659 5C2.66659 5.114 2.67592 5.22867 2.69325 5.34334C2.47725 5.55667 2.30259 5.812 2.18259 6.09534C2.15459 6.162 2.13992 6.23467 2.11792 6.304C2.09392 6.38 2.06325 6.454 2.04725 6.53334C2.01592 6.68534 1.99992 6.84134 1.99992 7C1.99992 7.17267 2.01992 7.34334 2.05859 7.512L2.05659 7.51467C1.83192 7.75534 1.65392 8.03334 1.53125 8.33667C1.52792 8.34467 1.52392 8.352 1.52059 8.36C1.46525 8.50067 1.42325 8.64667 1.39192 8.79534C1.38592 8.82334 1.38192 8.85134 1.37659 8.87934C1.35125 9.02867 1.33325 9.18 1.33325 9.33334C1.33325 9.49667 1.35325 9.65467 1.38125 9.81067C1.38859 9.84934 1.39592 9.88734 1.40459 9.926C1.43925 10.0767 1.48192 10.2247 1.54125 10.3653C1.54525 10.3747 1.55125 10.3833 1.55525 10.3933C1.61125 10.522 1.67992 10.644 1.75592 10.762C1.78125 10.8013 1.80725 10.84 1.83392 10.878C1.90392 10.9753 1.97925 11.0673 2.06192 11.1547C2.10992 11.2053 2.15992 11.252 2.21192 11.2987C2.27925 11.3593 2.34859 11.418 2.42192 11.472C2.48792 11.5207 2.55592 11.5653 2.62659 11.608C2.64059 11.616 2.65259 11.6267 2.66659 11.6347C2.66659 11.646 2.66659 11.656 2.66659 11.6673C2.66659 12.848 3.54725 13.826 4.68659 13.98C5.12259 14.4193 5.70725 14.6667 6.33325 14.6667C6.98659 14.6667 7.57592 14.3953 7.99992 13.9613C8.42392 14.3953 9.01325 14.6667 9.66659 14.6667C10.2926 14.6667 10.8773 14.4193 11.3133 13.9793C12.4526 13.8253 13.3333 12.8473 13.3333 11.6667C13.3333 11.6553 13.3333 11.6453 13.3333 11.634C13.3473 11.626 13.3593 11.616 13.3733 11.6073C13.4439 11.5647 13.5119 11.52 13.5779 11.4713C13.6519 11.4173 13.7206 11.3587 13.7879 11.298C13.8393 11.2513 13.8899 11.2047 13.9379 11.154C14.0206 11.0673 14.0959 10.9747 14.1659 10.8773C14.1933 10.8393 14.2193 10.8007 14.2439 10.7613C14.3193 10.6433 14.3879 10.5213 14.4446 10.3927C14.4486 10.3833 14.4546 10.3747 14.4586 10.3647C14.5179 10.224 14.5606 10.076 14.5953 9.92534C14.6039 9.88734 14.6113 9.84934 14.6186 9.81C14.6466 9.65467 14.6666 9.49667 14.6666 9.33334C14.6666 9.18 14.6486 9.02867 14.6226 8.88ZM7.33325 12.3333C7.33325 12.8847 6.88459 13.3333 6.33325 13.3333C6.02125 13.3333 5.73192 13.1867 5.53859 12.9307C5.41259 12.764 5.21592 12.666 5.00659 12.666C4.99859 12.666 4.99059 12.666 4.98192 12.6667C4.55325 12.6587 4.19325 12.3787 4.05925 11.994C4.40792 11.986 4.74659 11.9173 5.06592 11.7787C5.40325 11.6313 5.55725 11.238 5.41059 10.9013C5.26325 10.5633 4.87059 10.4087 4.53325 10.556C4.36459 10.6293 4.18525 10.6667 3.99992 10.6667C3.86392 10.6667 3.73525 10.64 3.61192 10.6027C3.60725 10.6013 3.60459 10.5973 3.59992 10.596C3.32325 10.508 3.09259 10.3387 2.92925 10.1207C2.92725 10.118 2.92459 10.1153 2.92259 10.112C2.84792 10.0107 2.79192 9.89734 2.74859 9.778C2.74059 9.756 2.73459 9.73334 2.72792 9.71067C2.69125 9.59 2.66659 9.464 2.66659 9.33334C2.66659 9.15267 2.71125 8.97867 2.77992 8.816C2.87392 8.59734 3.01992 8.40267 3.22392 8.25534C3.29859 8.20134 3.35459 8.13267 3.39925 8.058C3.40059 8.056 3.40059 8.054 3.40192 8.052C3.44259 7.98334 3.46859 7.90934 3.48259 7.832C3.48592 7.81467 3.48459 7.79734 3.48659 7.77934C3.49259 7.718 3.49192 7.658 3.48059 7.596C3.47592 7.568 3.46659 7.542 3.45859 7.51534C3.44925 7.48667 3.44792 7.45667 3.43459 7.42867C3.36725 7.28667 3.33325 7.142 3.33325 7C3.33325 6.92067 3.34459 6.844 3.36325 6.76867C3.36792 6.74934 3.37459 6.73134 3.38059 6.71267C3.39792 6.65534 3.41992 6.59934 3.44725 6.546C3.45525 6.53067 3.46325 6.51534 3.47192 6.50067C3.55192 6.36467 3.66325 6.24534 3.80325 6.15667C3.80325 6.15667 3.80459 6.15534 3.80592 6.15467C3.95925 6.058 4.13925 6 4.33325 6C4.46992 6 4.60125 6.02667 4.72459 6.07934C5.06259 6.226 5.45459 6.06734 5.59992 5.72934C5.74459 5.39067 5.58792 4.99867 5.24925 4.854C4.95925 4.73 4.65125 4.66667 4.33325 4.66667C4.23792 4.66667 4.14659 4.684 4.05392 4.69467C4.16459 4.354 4.44859 4.08734 4.81725 4.01934C5.08925 3.96934 5.30259 3.756 5.35259 3.484C5.43992 3.01067 5.85259 2.66667 6.33325 2.66667C6.88459 2.66667 7.33325 3.11534 7.33325 3.66667V12.3333ZM13.2726 9.71067C13.2659 9.73334 13.2593 9.756 13.2519 9.778C13.2086 9.89734 13.1526 10.0107 13.0779 10.112C13.0759 10.1147 13.0733 10.1173 13.0713 10.1207C12.9079 10.3387 12.6773 10.5087 12.4006 10.596C12.3959 10.5973 12.3933 10.6013 12.3886 10.6027C12.2646 10.64 12.1359 10.6667 11.9999 10.6667C11.8146 10.6667 11.6353 10.6293 11.4673 10.556C11.1286 10.4073 10.7366 10.564 10.5899 10.9013C10.4426 11.2387 10.5966 11.632 10.9346 11.7787C11.2533 11.9173 11.5926 11.986 11.9413 11.994C11.8066 12.3793 11.4473 12.6593 11.0186 12.6667C10.7946 12.6473 10.5926 12.758 10.4619 12.9307C10.2679 13.1867 9.97859 13.3333 9.66659 13.3333C9.11525 13.3333 8.66659 12.8847 8.66659 12.3333V3.66667C8.66659 3.11534 9.11525 2.66667 9.66659 2.66667C10.1473 2.66667 10.5599 3.01067 10.6473 3.48467C10.6973 3.75667 10.9106 3.97 11.1826 4.02C11.5513 4.088 11.8353 4.35467 11.9459 4.69534C11.8533 4.684 11.7619 4.66667 11.6666 4.66667C11.3486 4.66667 11.0406 4.73 10.7499 4.854C10.4113 4.99867 10.2546 5.39067 10.3993 5.72934C10.5439 6.06734 10.9353 6.22667 11.2746 6.07934C11.3986 6.02667 11.5299 6 11.6666 6C11.8606 6 12.0406 6.058 12.1939 6.154C12.1939 6.154 12.1953 6.15534 12.1966 6.156C12.3366 6.24467 12.4479 6.364 12.5279 6.5C12.5366 6.51467 12.5446 6.53 12.5526 6.54534C12.5806 6.59867 12.6019 6.65467 12.6199 6.71267C12.6253 6.73134 12.6326 6.74934 12.6373 6.76867C12.6553 6.844 12.6666 6.92067 12.6666 7C12.6666 7.14267 12.6326 7.28667 12.5653 7.428C12.5519 7.456 12.5506 7.486 12.5413 7.51467C12.5326 7.542 12.5239 7.568 12.5186 7.596C12.5073 7.65734 12.5066 7.718 12.5126 7.77934C12.5146 7.79734 12.5133 7.81467 12.5166 7.832C12.5306 7.91 12.5573 7.984 12.5979 8.05267C12.5993 8.054 12.5993 8.056 12.5999 8.058C12.6453 8.13267 12.7013 8.202 12.7759 8.25534C12.9793 8.402 13.1259 8.59734 13.2199 8.816C13.2886 8.97867 13.3333 9.15267 13.3333 9.33334C13.3333 9.464 13.3086 9.59 13.2726 9.71067Z" fill="#1C64F2"/>
</svg>
